<svg width="13" height="13" viewBox="0 0 13 13" fill="none" xmlns="http://www.w3.org/2000/svg">
<path d="M6.71133 2.80127L1.13758 8.37502C0.932198 8.58079 0.802396 8.84994 0.76925 9.13877L0.547166 11.0888C0.53269 11.2259 0.547301 11.3645 0.590047 11.4956C0.632793 11.6267 0.702712 11.7473 0.795237 11.8496C0.887762 11.9518 1.00081 12.0334 1.12701 12.089C1.2532 12.1445 1.3897 12.1729 1.52758 12.1721H1.64133L3.59133 11.95C3.87902 11.9167 4.14758 11.7891 4.35508 11.5871L9.92883 6.00794L6.71133 2.80127Z" fill="#007AFF"/>
<path d="M11.8137 2.32987L10.4 0.916123C10.2817 0.797386 10.1412 0.70317 9.9864 0.638884C9.83163 0.574597 9.6657 0.541504 9.49811 0.541504C9.33052 0.541504 9.16458 0.574597 9.00982 0.638884C8.85505 0.70317 8.7145 0.797386 8.59623 0.916123L7.2854 2.22696L10.5029 5.44446L11.8137 4.13362C11.9325 4.01536 12.0267 3.87481 12.091 3.72004C12.1553 3.56527 12.1884 3.39934 12.1884 3.23175C12.1884 3.06416 12.1553 2.89822 12.091 2.74346C12.0267 2.58869 11.9325 2.44814 11.8137 2.32987Z" fill="#007AFF"/>
</svg>
