<svg width="16" height="18" viewBox="0 0 16 18" fill="none" xmlns="http://www.w3.org/2000/svg">
<path d="M0.6875 3.9375H1.8125V15.4575C1.81398 15.9822 2.02307 16.4849 2.39407 16.8559C2.76507 17.2269 3.26783 17.436 3.7925 17.4375H12.23C12.7508 17.4301 13.2478 17.2184 13.6139 16.8481C13.9801 16.4777 14.1861 15.9783 14.1875 15.4575V3.9375H15.3125C15.4617 3.9375 15.6048 3.87824 15.7102 3.77275C15.8157 3.66726 15.875 3.52418 15.875 3.375C15.875 3.22582 15.8157 3.08274 15.7102 2.97725C15.6048 2.87176 15.4617 2.8125 15.3125 2.8125H0.6875C0.538316 2.8125 0.395242 2.87176 0.289752 2.97725C0.184263 3.08274 0.125 3.22582 0.125 3.375C0.125 3.52418 0.184263 3.66726 0.289752 3.77275C0.395242 3.87824 0.538316 3.9375 0.6875 3.9375ZM13.0625 3.9375V15.4575C13.0625 15.6843 12.9724 15.9017 12.8121 16.0621C12.6517 16.2224 12.4343 16.3125 12.2075 16.3125H3.77C3.54716 16.3066 3.33543 16.214 3.17992 16.0543C3.02441 15.8945 2.93742 15.6804 2.9375 15.4575V3.9375H13.0625Z" fill="white"/>
<path d="M5.75 1.6875H10.25C10.3992 1.6875 10.5423 1.62824 10.6477 1.52275C10.7532 1.41726 10.8125 1.27418 10.8125 1.125C10.8125 0.975816 10.7532 0.832742 10.6477 0.727252C10.5423 0.621763 10.3992 0.5625 10.25 0.5625H5.75C5.60082 0.5625 5.45774 0.621763 5.35225 0.727252C5.24676 0.832742 5.1875 0.975816 5.1875 1.125C5.1875 1.27418 5.24676 1.41726 5.35225 1.52275C5.45774 1.62824 5.60082 1.6875 5.75 1.6875Z" fill="white"/>
<path d="M6.13281 14.0625C6.282 14.0625 6.42507 14.0032 6.53056 13.8977C6.63605 13.7923 6.69531 13.6492 6.69531 13.5V6.75C6.69531 6.60082 6.63605 6.45774 6.53056 6.35225C6.42507 6.24676 6.282 6.1875 6.13281 6.1875C5.98363 6.1875 5.84055 6.24676 5.73506 6.35225C5.62958 6.45774 5.57031 6.60082 5.57031 6.75V13.5C5.57031 13.6492 5.62958 13.7923 5.73506 13.8977C5.84055 14.0032 5.98363 14.0625 6.13281 14.0625Z" fill="white"/>
<path d="M9.86719 14.0625C10.0164 14.0625 10.1594 14.0032 10.2649 13.8977C10.3704 13.7923 10.4297 13.6492 10.4297 13.5V6.75C10.4297 6.60082 10.3704 6.45774 10.2649 6.35225C10.1594 6.24676 10.0164 6.1875 9.86719 6.1875C9.718 6.1875 9.57493 6.24676 9.46944 6.35225C9.36395 6.45774 9.30469 6.60082 9.30469 6.75V13.5C9.30469 13.6492 9.36395 13.7923 9.46944 13.8977C9.57493 14.0032 9.718 14.0625 9.86719 14.0625Z" fill="white"/>
</svg>
